<?xml version="1.0" encoding="UTF-8" standalone="no"?>
<!-- Created with Inkscape (http://www.inkscape.org/) -->

<svg
   xmlns:dc="http://purl.org/dc/elements/1.1/"
   xmlns:cc="http://creativecommons.org/ns#"
   xmlns:rdf="http://www.w3.org/1999/02/22-rdf-syntax-ns#"
   xmlns:svg="http://www.w3.org/2000/svg"
   xmlns="http://www.w3.org/2000/svg"
   xmlns:sodipodi="http://sodipodi.sourceforge.net/DTD/sodipodi-0.dtd"
   xmlns:inkscape="http://www.inkscape.org/namespaces/inkscape"
   width="506.0459"
   height="410.57141"
   id="svg3972"
   version="1.1"
   inkscape:version="0.48.4 r9939"
   sodipodi:docname="topology_data_1ab.svg">
  <defs
     id="defs3974" />
  <sodipodi:namedview
     id="base"
     pagecolor="#ffffff"
     bordercolor="#666666"
     borderopacity="1.0"
     inkscape:pageopacity="0.0"
     inkscape:pageshadow="2"
     inkscape:zoom="0.7"
     inkscape:cx="234.95161"
     inkscape:cy="187.44591"
     inkscape:document-units="px"
     inkscape:current-layer="layer1"
     showgrid="false"
     fit-margin-top="0"
     fit-margin-left="0"
     fit-margin-right="0"
     fit-margin-bottom="0"
     inkscape:window-width="879"
     inkscape:window-height="714"
     inkscape:window-x="163"
     inkscape:window-y="11"
     inkscape:window-maximized="0" />
  <metadata
     id="metadata3977">
    <rdf:RDF>
      <cc:Work
         rdf:about="">
        <dc:format>image/svg+xml</dc:format>
        <dc:type
           rdf:resource="http://purl.org/dc/dcmitype/StillImage" />
        <dc:title></dc:title>
      </cc:Work>
    </rdf:RDF>
  </metadata>
  <g
     inkscape:label="Layer 1"
     inkscape:groupmode="layer"
     id="layer1"
     transform="translate(-25.137369,-137.07647)">
    <path
       transform="matrix(0.75087719,0,0,0.75077532,-26.636588,150.97737)"
       style="fill:#819a82;fill-opacity:0.04255319;fill-rule:nonzero;stroke:#141518;stroke-width:2.66373205000000010;stroke-linecap:round;stroke-linejoin:round;stroke-miterlimit:4;stroke-opacity:0.06382979000000000;stroke-dashoffset:0"
       d="m 644.28572,234.50504 c -82.09723,59.68769 104.17819,114.16386 56.16535,148.52879 -34.4435,24.65275 -253.61179,19.86462 -299.69005,10.78643 C 139.85409,342.41721 26.575109,233.81039 237.14287,234.50504 408.09765,235.06901 381.69866,67.484039 440.71429,46.647888 600.28264,-9.6895664 851.98927,87.942313 646.157,231.21293"
       id="path4000"
       inkscape:connector-curvature="0"
       sodipodi:nodetypes="cssssc" />
    <path
       sodipodi:type="arc"
       style="fill:#ffffff;fill-opacity:1;fill-rule:nonzero;stroke:#141518;stroke-width:0.63473146999999996;stroke-linecap:round;stroke-linejoin:round;stroke-miterlimit:4;stroke-opacity:0.04787234;stroke-dasharray:none;stroke-dashoffset:0"
       id="path4511"
       sodipodi:cx="361.68619"
       sodipodi:cy="225.21933"
       sodipodi:rx="23.114771"
       sodipodi:ry="14.285714"
       d="m 384.80096,225.21933 c 0,7.88978 -10.34884,14.28571 -23.11477,14.28571 -12.76594,0 -23.11477,-6.39593 -23.11477,-14.28571 0,-7.88978 10.34883,-14.28571 23.11477,-14.28571 12.60802,0 22.89027,6.24437 23.11122,14.03536"
       sodipodi:start="0"
       sodipodi:end="6.2656599"
       sodipodi:open="true"
       transform="matrix(3.0086105,0,0,3.3,-702.91526,-486.57589)" />
    <path
       transform="matrix(2.4832816,0,0,1.95,-686.48247,-67.529798)"
       sodipodi:open="true"
       sodipodi:end="6.2656599"
       sodipodi:start="0"
       d="m 384.80096,225.21933 c 0,7.88978 -10.34884,14.28571 -23.11477,14.28571 -12.76594,0 -23.11477,-6.39593 -23.11477,-14.28571 0,-7.88978 10.34883,-14.28571 23.11477,-14.28571 12.60802,0 22.89027,6.24437 23.11122,14.03536"
       sodipodi:ry="14.285714"
       sodipodi:rx="23.114771"
       sodipodi:cy="225.21933"
       sodipodi:cx="361.68619"
       id="path4524"
       style="fill:#ffffff;fill-opacity:0.05851064000000000;fill-rule:nonzero;stroke:#141518;stroke-width:0.90886562999999998;stroke-linecap:round;stroke-linejoin:round;stroke-miterlimit:4;stroke-opacity:0.03723404;stroke-dasharray:none;stroke-dashoffset:0"
       sodipodi:type="arc" />
    <path
       transform="matrix(1.4145503,0,0,1.4146341,-503.30862,141.70349)"
       sodipodi:open="true"
       sodipodi:end="6.2656599"
       sodipodi:start="0"
       d="m 492.85715,150.93361 c 0,32.34811 -26.54311,58.57143 -59.28571,58.57143 -32.74259,0 -59.28571,-26.22332 -59.28571,-58.57143 0,-32.34811 26.54312,-58.571431 59.28571,-58.571431 32.33757,0 58.70991,25.601941 59.27661,57.544991"
       sodipodi:ry="58.57143"
       sodipodi:rx="59.285713"
       sodipodi:cy="150.93361"
       sodipodi:cx="433.57144"
       id="path3761"
       style="fill:#4558cd;fill-opacity:0.22872338;stroke:#6d81c0;stroke-width:1.41383505;stroke-linecap:round;stroke-linejoin:round;stroke-miterlimit:4;stroke-opacity:1;stroke-dasharray:1.41383502, 2.82767004;stroke-dashoffset:0"
       sodipodi:type="arc" />
    <path
       sodipodi:type="arc"
       style="fill:#4558cd;fill-opacity:0.22872338;stroke:#6d81c0;stroke-width:1.41383505;stroke-linecap:round;stroke-linejoin:round;stroke-miterlimit:4;stroke-opacity:1;stroke-dasharray:1.41383502, 2.82767004;stroke-dashoffset:0"
       id="path4550"
       sodipodi:cx="433.57144"
       sodipodi:cy="150.93361"
       sodipodi:rx="59.285713"
       sodipodi:ry="58.57143"
       d="m 492.85715,150.93361 c 0,32.34811 -26.54311,58.57143 -59.28571,58.57143 -32.74259,0 -59.28571,-26.22332 -59.28571,-58.57143 0,-32.34811 26.54312,-58.571431 59.28571,-58.571431 32.33757,0 58.70991,25.601941 59.27661,57.544991"
       sodipodi:start="0"
       sodipodi:end="6.2656599"
       sodipodi:open="true"
       transform="matrix(1.4145503,0,0,1.4146341,-414.73719,78.846347)" />
    <path
       transform="matrix(1.4145503,0,0,1.4146341,-426.16576,250.27492)"
       sodipodi:open="true"
       sodipodi:end="6.2656599"
       sodipodi:start="0"
       d="m 492.85715,150.93361 c 0,32.34811 -26.54311,58.57143 -59.28571,58.57143 -32.74259,0 -59.28571,-26.22332 -59.28571,-58.57143 0,-32.34811 26.54312,-58.571431 59.28571,-58.571431 32.33757,0 58.70991,25.601941 59.27661,57.544991"
       sodipodi:ry="58.57143"
       sodipodi:rx="59.285713"
       sodipodi:cy="150.93361"
       sodipodi:cx="433.57144"
       id="path4552"
       style="fill:#4558cd;fill-opacity:0.22872338;stroke:#6d81c0;stroke-width:1.41383505;stroke-linecap:round;stroke-linejoin:round;stroke-miterlimit:4;stroke-opacity:1;stroke-dasharray:1.41383502, 2.82767004;stroke-dashoffset:0"
       sodipodi:type="arc" />
    <path
       sodipodi:type="arc"
       style="fill:#4558cd;fill-opacity:0.22872338;stroke:#6d81c0;stroke-width:1.41383505;stroke-linecap:round;stroke-linejoin:round;stroke-miterlimit:4;stroke-opacity:1;stroke-dasharray:1.41383502, 2.82767004;stroke-dashoffset:0"
       id="path4554"
       sodipodi:cx="433.57144"
       sodipodi:cy="150.93361"
       sodipodi:rx="59.285713"
       sodipodi:ry="58.57143"
       d="m 492.85715,150.93361 c 0,32.34811 -26.54311,58.57143 -59.28571,58.57143 -32.74259,0 -59.28571,-26.22332 -59.28571,-58.57143 0,-32.34811 26.54312,-58.571431 59.28571,-58.571431 32.33757,0 58.70991,25.601941 59.27661,57.544991"
       sodipodi:start="0"
       sodipodi:end="6.2656599"
       sodipodi:open="true"
       transform="matrix(1.4145503,0,0,1.4146341,-319.0229,185.98921)" />
    <path
       transform="matrix(1.4145503,0,0,1.4146341,-184.73719,227.41778)"
       sodipodi:open="true"
       sodipodi:end="6.2656599"
       sodipodi:start="0"
       d="m 492.85715,150.93361 c 0,32.34811 -26.54311,58.57143 -59.28571,58.57143 -32.74259,0 -59.28571,-26.22332 -59.28571,-58.57143 0,-32.34811 26.54312,-58.571431 59.28571,-58.571431 32.33757,0 58.70991,25.601941 59.27661,57.544991"
       sodipodi:ry="58.57143"
       sodipodi:rx="59.285713"
       sodipodi:cy="150.93361"
       sodipodi:cx="433.57144"
       id="path4556"
       style="fill:#4558cd;fill-opacity:0.22872338;stroke:#6d81c0;stroke-width:1.41383505;stroke-linecap:round;stroke-linejoin:round;stroke-miterlimit:4;stroke-opacity:1;stroke-dasharray:1.41383502, 2.82767004;stroke-dashoffset:0"
       sodipodi:type="arc" />
    <path
       sodipodi:type="arc"
       style="fill:#4558cd;fill-opacity:0.22872338;stroke:#6d81c0;stroke-width:2.51061583;stroke-linecap:round;stroke-linejoin:round;stroke-miterlimit:4;stroke-opacity:1;stroke-dasharray:2.51061588, 5.02123176;stroke-dashoffset:0"
       id="path4558"
       sodipodi:cx="433.57144"
       sodipodi:cy="150.93361"
       sodipodi:rx="59.285713"
       sodipodi:ry="58.57143"
       d="m 492.85715,150.93361 c 0,32.34811 -26.54311,58.57143 -59.28571,58.57143 -32.74259,0 -59.28571,-26.22332 -59.28571,-58.57143 0,-32.34811 26.54312,-58.571431 59.28571,-58.571431 32.33757,0 58.70991,25.601941 59.27661,57.544991"
       sodipodi:start="0"
       sodipodi:end="6.2656599"
       sodipodi:open="true"
       transform="matrix(0.73291729,0,0,0.86585362,76.102603,199.53292)" />
    <path
       transform="matrix(0.82930283,0,0,0.82926826,-38.544559,171.48345)"
       sodipodi:open="true"
       sodipodi:end="6.2656599"
       sodipodi:start="0"
       d="m 492.85715,150.93361 c 0,32.34811 -26.54311,58.57143 -59.28571,58.57143 -32.74259,0 -59.28571,-26.22332 -59.28571,-58.57143 0,-32.34811 26.54312,-58.571431 59.28571,-58.571431 32.33757,0 58.70991,25.601941 59.27661,57.544991"
       sodipodi:ry="58.57143"
       sodipodi:rx="59.285713"
       sodipodi:cy="150.93361"
       sodipodi:cx="433.57144"
       id="path4560"
       style="fill:#4558cd;fill-opacity:0.22872338;stroke:#6d81c0;stroke-width:2.41171455;stroke-linecap:round;stroke-linejoin:round;stroke-miterlimit:4;stroke-opacity:1;stroke-dasharray:2.41171452, 4.82342904;stroke-dashoffset:0"
       sodipodi:type="arc" />
    <path
       sodipodi:type="arc"
       style="fill:#4558cd;fill-opacity:0.22872338;stroke:#6d81c0;stroke-width:2.41171455;stroke-linecap:round;stroke-linejoin:round;stroke-miterlimit:4;stroke-opacity:1;stroke-dasharray:2.41171452, 4.82342904;stroke-dashoffset:0"
       id="path4562"
       sodipodi:cx="433.57144"
       sodipodi:cy="150.93361"
       sodipodi:rx="59.285713"
       sodipodi:ry="58.57143"
       d="m 492.85715,150.93361 c 0,32.34811 -26.54311,58.57143 -59.28571,58.57143 -32.74259,0 -59.28571,-26.22332 -59.28571,-58.57143 0,-32.34811 26.54312,-58.571431 59.28571,-58.571431 32.33757,0 58.70991,25.601941 59.27661,57.544991"
       sodipodi:start="0"
       sodipodi:end="6.2656599"
       sodipodi:open="true"
       transform="matrix(0.82930283,0,0,0.82926826,-64.258845,98.626307)" />
    <path
       transform="matrix(0.82930283,0,0,0.82926826,4.3125836,61.48345)"
       sodipodi:open="true"
       sodipodi:end="6.2656599"
       sodipodi:start="0"
       d="m 492.85715,150.93361 c 0,32.34811 -26.54311,58.57143 -59.28571,58.57143 -32.74259,0 -59.28571,-26.22332 -59.28571,-58.57143 0,-32.34811 26.54312,-58.571431 59.28571,-58.571431 32.33757,0 58.70991,25.601941 59.27661,57.544991"
       sodipodi:ry="58.57143"
       sodipodi:rx="59.285713"
       sodipodi:cy="150.93361"
       sodipodi:cx="433.57144"
       id="path4564"
       style="fill:#4558cd;fill-opacity:0.22872338;stroke:#6d81c0;stroke-width:2.41171455;stroke-linecap:round;stroke-linejoin:round;stroke-miterlimit:4;stroke-opacity:1;stroke-dasharray:2.41171452, 4.82342904;stroke-dashoffset:0"
       sodipodi:type="arc" />
    <path
       sodipodi:type="arc"
       style="fill:#4558cd;fill-opacity:0.22872338;stroke:#6d81c0;stroke-width:2.41171455;stroke-linecap:round;stroke-linejoin:round;stroke-miterlimit:4;stroke-opacity:1;stroke-dasharray:2.41171452, 4.82342904;stroke-dashoffset:0"
       id="path4566"
       sodipodi:cx="433.57144"
       sodipodi:cy="150.93361"
       sodipodi:rx="59.285713"
       sodipodi:ry="58.57143"
       d="m 492.85715,150.93361 c 0,32.34811 -26.54311,58.57143 -59.28571,58.57143 -32.74259,0 -59.28571,-26.22332 -59.28571,-58.57143 0,-32.34811 26.54312,-58.571431 59.28571,-58.571431 32.33757,0 58.70991,25.601941 59.27661,57.544991"
       sodipodi:start="0"
       sodipodi:end="6.2656599"
       sodipodi:open="true"
       transform="matrix(0.82930283,0,0,0.82926826,81.455441,71.48345)" />
    <path
       transform="matrix(0.82930283,0,0,0.82926826,121.45544,121.48345)"
       sodipodi:open="true"
       sodipodi:end="6.2656599"
       sodipodi:start="0"
       d="m 492.85715,150.93361 c 0,32.34811 -26.54311,58.57143 -59.28571,58.57143 -32.74259,0 -59.28571,-26.22332 -59.28571,-58.57143 0,-32.34811 26.54312,-58.571431 59.28571,-58.571431 32.33757,0 58.70991,25.601941 59.27661,57.544991"
       sodipodi:ry="58.57143"
       sodipodi:rx="59.285713"
       sodipodi:cy="150.93361"
       sodipodi:cx="433.57144"
       id="path4568"
       style="fill:#4558cd;fill-opacity:0.22872338;stroke:#6d81c0;stroke-width:2.41171455;stroke-linecap:round;stroke-linejoin:round;stroke-miterlimit:4;stroke-opacity:1;stroke-dasharray:2.41171452, 4.82342904;stroke-dashoffset:0"
       sodipodi:type="arc" />
    <path
       sodipodi:type="arc"
       style="fill:#4558cd;fill-opacity:0.22872338;stroke:#6d81c0;stroke-width:2.41171455;stroke-linecap:round;stroke-linejoin:round;stroke-miterlimit:4;stroke-opacity:1;stroke-dasharray:2.41171452, 4.82342904;stroke-dashoffset:0"
       id="path4570"
       sodipodi:cx="433.57144"
       sodipodi:cy="150.93361"
       sodipodi:rx="59.285713"
       sodipodi:ry="58.57143"
       d="m 492.85715,150.93361 c 0,32.34811 -26.54311,58.57143 -59.28571,58.57143 -32.74259,0 -59.28571,-26.22332 -59.28571,-58.57143 0,-32.34811 26.54312,-58.571431 59.28571,-58.571431 32.33757,0 58.70991,25.601941 59.27661,57.544991"
       sodipodi:start="0"
       sodipodi:end="6.2656599"
       sodipodi:open="true"
       transform="matrix(0.82930283,0,0,0.82926826,98.598297,195.76916)" />
    <path
       sodipodi:open="true"
       sodipodi:end="12.072915"
       sodipodi:start="5.8074699"
       transform="matrix(0.64293192,0,0,0.64293157,281.06706,414.92446)"
       d="m -142.53892,117.42026 a 10,10 0 1 1 -0.0826,-0.15697"
       sodipodi:ry="10"
       sodipodi:rx="10"
       sodipodi:cy="122.00001"
       sodipodi:cx="-151.42857"
       id="path4590"
       style="fill:#c52727;fill-opacity:1;stroke:#070101;stroke-width:3.73290038;stroke-linecap:round;stroke-linejoin:round;stroke-miterlimit:4;stroke-opacity:1;stroke-dasharray:none;stroke-dashoffset:0"
       sodipodi:type="arc" />
    <path
       sodipodi:type="arc"
       style="fill:#c52727;fill-opacity:1;stroke:#070101;stroke-width:3.73290038;stroke-linecap:round;stroke-linejoin:round;stroke-miterlimit:4;stroke-opacity:1;stroke-dasharray:none;stroke-dashoffset:0"
       id="path4592"
       sodipodi:cx="-151.42857"
       sodipodi:cy="122.00001"
       sodipodi:rx="10"
       sodipodi:ry="10"
       d="m -142.53892,117.42026 a 10,10 0 1 1 -0.0826,-0.15697"
       transform="matrix(0.64293192,0,0,0.64293157,179.63849,287.7816)"
       sodipodi:start="5.8074699"
       sodipodi:end="12.072915"
       sodipodi:open="true" />
    <path
       sodipodi:open="true"
       sodipodi:end="12.072915"
       sodipodi:start="5.8074699"
       transform="matrix(0.64293192,0,0,0.64293157,301.06706,202.06731)"
       d="m -142.53892,117.42026 a 10,10 0 1 1 -0.0826,-0.15697"
       sodipodi:ry="10"
       sodipodi:rx="10"
       sodipodi:cy="122.00001"
       sodipodi:cx="-151.42857"
       id="path4594"
       style="fill:#c52727;fill-opacity:1;stroke:#070101;stroke-width:3.73290038;stroke-linecap:round;stroke-linejoin:round;stroke-miterlimit:4;stroke-opacity:1;stroke-dasharray:none;stroke-dashoffset:0"
       sodipodi:type="arc" />
    <path
       sodipodi:type="arc"
       style="fill:#c52727;fill-opacity:1;stroke:#070101;stroke-width:3.73290038;stroke-linecap:round;stroke-linejoin:round;stroke-miterlimit:4;stroke-opacity:1;stroke-dasharray:none;stroke-dashoffset:0"
       id="path4596"
       sodipodi:cx="-151.42857"
       sodipodi:cy="122.00001"
       sodipodi:rx="10"
       sodipodi:ry="10"
       d="m -142.53892,117.42026 a 10,10 0 1 1 -0.0826,-0.15697"
       transform="matrix(0.64293192,0,0,0.64293157,301.06706,202.06731)"
       sodipodi:start="5.8074699"
       sodipodi:end="12.072915"
       sodipodi:open="true" />
    <path
       sodipodi:open="true"
       sodipodi:end="12.072915"
       sodipodi:start="5.8074699"
       transform="matrix(0.64293192,0,0,0.64293157,396.78135,319.21017)"
       d="m -142.53892,117.42026 a 10,10 0 1 1 -0.0826,-0.15697"
       sodipodi:ry="10"
       sodipodi:rx="10"
       sodipodi:cy="122.00001"
       sodipodi:cx="-151.42857"
       id="path4598"
       style="fill:#c52727;fill-opacity:1;stroke:#070101;stroke-width:3.73290038;stroke-linecap:round;stroke-linejoin:round;stroke-miterlimit:4;stroke-opacity:1;stroke-dasharray:none;stroke-dashoffset:0"
       sodipodi:type="arc" />
    <path
       sodipodi:type="arc"
       style="fill:#c52727;fill-opacity:1;stroke:#070101;stroke-width:3.73290038;stroke-linecap:round;stroke-linejoin:round;stroke-miterlimit:4;stroke-opacity:1;stroke-dasharray:none;stroke-dashoffset:0"
       id="path4600"
       sodipodi:cx="-151.42857"
       sodipodi:cy="122.00001"
       sodipodi:rx="10"
       sodipodi:ry="10"
       d="m -142.53892,117.42026 a 10,10 0 1 1 -0.0826,-0.15697"
       transform="matrix(0.64293192,0,0,0.64293157,528.20992,374.92446)"
       sodipodi:start="5.8074699"
       sodipodi:end="12.072915"
       sodipodi:open="true" />
    <path
       sodipodi:open="true"
       sodipodi:end="12.072915"
       sodipodi:start="5.8074699"
       transform="matrix(0.64293192,0,0,0.64293157,485.35278,254.92446)"
       d="m -142.53892,117.42026 a 10,10 0 1 1 -0.0826,-0.15697"
       sodipodi:ry="10"
       sodipodi:rx="10"
       sodipodi:cy="122.00001"
       sodipodi:cx="-151.42857"
       id="path4602"
       style="fill:#c52727;fill-opacity:1;stroke:#070101;stroke-width:3.73290038;stroke-linecap:round;stroke-linejoin:round;stroke-miterlimit:4;stroke-opacity:1;stroke-dasharray:none;stroke-dashoffset:0"
       sodipodi:type="arc" />
    <path
       sodipodi:type="arc"
       style="fill:#c52727;fill-opacity:1;stroke:#070101;stroke-width:3.73290038;stroke-linecap:round;stroke-linejoin:round;stroke-miterlimit:4;stroke-opacity:1;stroke-dasharray:none;stroke-dashoffset:0"
       id="path4604"
       sodipodi:cx="-151.42857"
       sodipodi:cy="122.00001"
       sodipodi:rx="10"
       sodipodi:ry="10"
       d="m -142.53892,117.42026 a 10,10 0 1 1 -0.0826,-0.15697"
       transform="matrix(0.64293192,0,0,0.64293157,558.20992,247.7816)"
       sodipodi:start="5.8074699"
       sodipodi:end="12.072915"
       sodipodi:open="true" />
    <path
       sodipodi:open="true"
       sodipodi:end="12.072915"
       sodipodi:start="5.8074699"
       transform="matrix(0.64293192,0,0,0.64293157,591.06706,172.06731)"
       d="m -142.53892,117.42026 a 10,10 0 1 1 -0.0826,-0.15697"
       sodipodi:ry="10"
       sodipodi:rx="10"
       sodipodi:cy="122.00001"
       sodipodi:cx="-151.42857"
       id="path4606"
       style="fill:#c52727;fill-opacity:1;stroke:#070101;stroke-width:3.73290038;stroke-linecap:round;stroke-linejoin:round;stroke-miterlimit:4;stroke-opacity:1;stroke-dasharray:none;stroke-dashoffset:0"
       sodipodi:type="arc" />
    <path
       sodipodi:type="arc"
       style="fill:#c52727;fill-opacity:1;stroke:#070101;stroke-width:3.73290038;stroke-linecap:round;stroke-linejoin:round;stroke-miterlimit:4;stroke-opacity:1;stroke-dasharray:none;stroke-dashoffset:0"
       id="path4608"
       sodipodi:cx="-151.42857"
       sodipodi:cy="122.00001"
       sodipodi:rx="10"
       sodipodi:ry="10"
       d="m -142.53892,117.42026 a 10,10 0 1 1 -0.0826,-0.15697"
       transform="matrix(0.64293192,0,0,0.64293157,535.35277,119.21017)"
       sodipodi:start="5.8074699"
       sodipodi:end="12.072915"
       sodipodi:open="true" />
    <path
       sodipodi:open="true"
       sodipodi:end="12.072915"
       sodipodi:start="5.8074699"
       transform="matrix(0.64293192,0,0,0.64293157,463.9242,109.21017)"
       d="m -142.53892,117.42026 a 10,10 0 1 1 -0.0826,-0.15697"
       sodipodi:ry="10"
       sodipodi:rx="10"
       sodipodi:cy="122.00001"
       sodipodi:cx="-151.42857"
       id="path4610"
       style="fill:#c52727;fill-opacity:1;stroke:#070101;stroke-width:3.73290038;stroke-linecap:round;stroke-linejoin:round;stroke-miterlimit:4;stroke-opacity:1;stroke-dasharray:none;stroke-dashoffset:0"
       sodipodi:type="arc" />
    <path
       sodipodi:type="arc"
       style="fill:#c52727;fill-opacity:1;stroke:#070101;stroke-width:3.73290038;stroke-linecap:round;stroke-linejoin:round;stroke-miterlimit:4;stroke-opacity:1;stroke-dasharray:none;stroke-dashoffset:0"
       id="path4612"
       sodipodi:cx="-151.42857"
       sodipodi:cy="122.00001"
       sodipodi:rx="10"
       sodipodi:ry="10"
       d="m -142.53892,117.42026 a 10,10 0 1 1 -0.0826,-0.15697"
       transform="matrix(0.64293192,0,0,0.64293157,389.63849,142.06731)"
       sodipodi:start="5.8074699"
       sodipodi:end="12.072915"
       sodipodi:open="true" />
    <path
       sodipodi:open="true"
       sodipodi:end="12.072915"
       sodipodi:start="5.8074699"
       transform="matrix(0.64293192,0,0,0.64293157,416.78135,219.21017)"
       d="m -142.53892,117.42026 a 10,10 0 1 1 -0.0826,-0.15697"
       sodipodi:ry="10"
       sodipodi:rx="10"
       sodipodi:cy="122.00001"
       sodipodi:cx="-151.42857"
       id="path4614"
       style="fill:#c52727;fill-opacity:1;stroke:#070101;stroke-width:3.73290038;stroke-linecap:round;stroke-linejoin:round;stroke-miterlimit:4;stroke-opacity:1;stroke-dasharray:none;stroke-dashoffset:0"
       sodipodi:type="arc" />
  </g>
</svg>
